# xmcd
#
# Track frame offsets: 
#        150
#        20532
#        47215
#        66757
#        87272
#        111620
#        140712
#        157100
#        177417
#        197707
#        226472
#        245842
#
# Disc length: 3568 seconds
#
# Revision: 0
# Processed by: cddbd v1.5.2PL0 Copyright (c) Steve Scherf et al.
# Submitted via: ExactAudioCopy v1.1
#
DISCID=b60dee0c
DTITLE=Bernard Allison - Funkifino
DYEAR=1996
DGENRE=Modern Electric Blues
TTITLE0=Fantasy
TTITLE1=Live Together
TTITLE2=Slippin' and Slidin'
TTITLE3=Feel My Groove
TTITLE4=Looking For An Answer
TTITLE5=If
TTITLE6=I'm Beginning To Wonder
TTITLE7=Waiting For The Bass To Come
TTITLE8=Ain't No Fun To Me
TTITLE9=Family Affair
TTITLE10=Too Many Women
TTITLE11=If I Should
EXTD=
EXTT0=
EXTT1=
EXTT2=
EXTT3=
EXTT4=
EXTT5=
EXTT6=
EXTT7=
EXTT8=
EXTT9=
EXTT10=
EXTT11=
PLAYORDER=
